<?xml version="1.0" encoding="utf-8"?>
<!-- Generator: Adobe Illustrator 21.0.0, SVG Export Plug-In . SVG Version: 6.00 Build 0)  -->
<svg version="1.1" id="Camada_1" xmlns="http://www.w3.org/2000/svg" xmlns:xlink="http://www.w3.org/1999/xlink" x="0px" y="0px"
	 viewBox="0 0 750 768" style="enable-background:new 0 0 750 768;" xml:space="preserve">
<style type="text/css">
	.st0{fill:#E89F2C;}
	.st1{fill:#EFC239;}
	.st2{fill:#FFFFFF;}
</style>
<g>
	<g>
		<path class="st0" d="M529,727.6C449.5,755.4,352,586,307,563.6C218.7,519.8,67.2,533.9,126.6,433c27.5-46.7,84.7-110,106.2-146.6
			c43.5-74.1-41.7-206.9,35.2-245.6c76.6-38.6,141.8,48.7,216.7,77.5c49.7,19.1,102.9,9.6,153.6,19.6c34.9,6.8,65.4,46,45.1,83.9
			C557.7,456,663.7,680.3,529,727.6z"/>
		<path class="st1" d="M639.9,551.7c137.8-110.6,121.2-231.7,7-208.7c-88.1,17.7-106-32.8-156.1-111c-51.4-80.2-167-21.3-242.4-67.2
			c-127.6-77.8-130.1,48.4-131.3,132.8c-1.2,83.8-110.7,129.9-89.3,237.7c17.4,87.6,152.7,10.9,284.2,85.6
			C490.5,722.3,514.8,652.1,639.9,551.7z"/>
		<g>
			<g>
				<path class="st2" d="M249.9,407.1c0.4,0,0.8,0.1,1.2,0.2s0.8,0.4,1.1,0.8l6.6,7c-2.9,3.8-6.5,6.7-10.9,8.6
					c-4.4,1.9-9.5,2.9-15.5,2.9c-5.5,0-10.4-0.9-14.7-2.8c-4.3-1.9-8-4.4-11-7.7c-3-3.3-5.3-7.2-6.9-11.7c-1.6-4.5-2.4-9.4-2.4-14.7
					c0-5.4,0.9-10.3,2.8-14.8c1.8-4.5,4.4-8.4,7.7-11.6s7.3-5.8,11.9-7.6c4.6-1.8,9.7-2.7,15.3-2.7c2.7,0,5.3,0.2,7.6,0.7
					c2.4,0.5,4.6,1.1,6.7,2s4,1.8,5.7,3c1.7,1.2,3.3,2.5,4.6,3.9l-5.6,7.6c-0.4,0.5-0.8,0.9-1.3,1.3c-0.5,0.4-1.2,0.6-2.1,0.6
					c-0.6,0-1.2-0.1-1.7-0.4c-0.5-0.3-1.1-0.6-1.7-1c-0.6-0.4-1.2-0.8-2-1.2c-0.7-0.4-1.6-0.9-2.5-1.2c-1-0.4-2.1-0.7-3.4-1
					c-1.3-0.3-2.8-0.4-4.6-0.4c-3,0-5.8,0.5-8.3,1.6c-2.5,1.1-4.7,2.6-6.5,4.6c-1.8,2-3.2,4.4-4.2,7.2c-1,2.8-1.5,6-1.5,9.5
					c0,3.7,0.5,7,1.5,9.8c1,2.9,2.4,5.3,4.1,7.2c1.7,2,3.8,3.5,6.1,4.5c2.3,1,4.8,1.5,7.4,1.5c1.5,0,2.9-0.1,4.2-0.2
					c1.3-0.1,2.4-0.4,3.5-0.8c1.1-0.4,2.1-0.8,3.1-1.4c1-0.6,2-1.3,2.9-2.2c0.4-0.3,0.8-0.6,1.3-0.8
					C248.9,407.2,249.4,407.1,249.9,407.1z"/>
				<path class="st2" d="M301.8,425.7c-1.5,0-2.5-0.2-3.3-0.6c-0.7-0.4-1.4-1.2-1.9-2.5l-1.1-2.8c-1.3,1.1-2.5,2-3.7,2.9
					c-1.2,0.8-2.4,1.5-3.7,2.1c-1.3,0.6-2.6,1-4.1,1.3c-1.4,0.3-3,0.4-4.8,0.4c-2.3,0-4.5-0.3-6.4-0.9c-1.9-0.6-3.5-1.5-4.9-2.7
					c-1.3-1.2-2.4-2.7-3.1-4.4c-0.7-1.8-1.1-3.8-1.1-6.1c0-1.8,0.5-3.7,1.4-5.6c0.9-1.9,2.5-3.7,4.8-5.2c2.3-1.6,5.3-2.9,9.2-3.9
					s8.7-1.6,14.6-1.6v-2.2c0-3-0.6-5.2-1.9-6.6s-3-2-5.3-2c-1.8,0-3.3,0.2-4.5,0.6c-1.2,0.4-2.2,0.8-3.1,1.3
					c-0.9,0.5-1.8,0.9-2.6,1.3c-0.9,0.4-1.9,0.6-3.1,0.6c-1.1,0-2-0.3-2.7-0.8c-0.7-0.5-1.3-1.1-1.8-1.9l-2.8-4.8
					c3.1-2.7,6.5-4.8,10.3-6.1c3.8-1.3,7.8-2,12.1-2c3.1,0,5.9,0.5,8.4,1.5c2.5,1,4.6,2.4,6.3,4.2c1.7,1.8,3.1,3.9,4,6.4
					c0.9,2.5,1.4,5.2,1.4,8.1v32H301.8z M284.2,416.4c2,0,3.7-0.3,5.2-1c1.5-0.7,3-1.8,4.5-3.4v-7c-3.1,0-5.6,0.2-7.6,0.6
					c-2,0.4-3.5,0.9-4.7,1.5c-1.2,0.6-2,1.3-2.4,2c-0.4,0.8-0.7,1.6-0.7,2.5c0,1.8,0.5,3,1.4,3.7C281,416,282.4,416.4,284.2,416.4z"
					/>
				<path class="st2" d="M351.1,385.6c-0.4,0.6-0.8,1.1-1.3,1.3c-0.4,0.3-1,0.4-1.7,0.4c-0.7,0-1.5-0.2-2.2-0.5
					c-0.7-0.3-1.5-0.7-2.3-1c-0.8-0.4-1.8-0.7-2.8-1c-1.1-0.3-2.3-0.5-3.6-0.5c-1.9,0-3.4,0.4-4.5,1.1s-1.6,1.8-1.6,3.1
					c0,1,0.3,1.7,1,2.4c0.7,0.6,1.6,1.2,2.7,1.7c1.1,0.5,2.4,0.9,3.8,1.4c1.4,0.4,2.9,0.9,4.4,1.4c1.5,0.5,2.9,1.1,4.4,1.9
					c1.4,0.7,2.7,1.6,3.8,2.6c1.1,1,2,2.3,2.7,3.8c0.7,1.5,1,3.3,1,5.3c0,2.5-0.5,4.9-1.4,7c-0.9,2.1-2.3,4-4.1,5.5
					c-1.8,1.6-4.1,2.8-6.8,3.6c-2.7,0.9-5.8,1.3-9.3,1.3c-1.7,0-3.5-0.2-5.2-0.5c-1.7-0.3-3.4-0.8-5.1-1.3c-1.6-0.6-3.1-1.2-4.5-2
					c-1.4-0.8-2.6-1.6-3.6-2.5l3.6-5.6c0.4-0.7,0.9-1.2,1.5-1.6c0.6-0.4,1.4-0.6,2.3-0.6c0.9,0,1.7,0.2,2.4,0.6
					c0.7,0.4,1.5,0.8,2.3,1.3c0.8,0.5,1.8,0.9,2.9,1.3c1.1,0.4,2.5,0.6,4.2,0.6c1.2,0,2.2-0.1,3-0.4c0.8-0.2,1.5-0.6,2-1
					c0.5-0.4,0.9-0.9,1.1-1.4c0.2-0.5,0.3-1.1,0.3-1.6c0-1-0.3-1.9-1-2.5c-0.7-0.7-1.6-1.2-2.7-1.7c-1.1-0.5-2.4-0.9-3.8-1.3
					c-1.4-0.4-2.9-0.9-4.4-1.4c-1.5-0.5-2.9-1.2-4.4-1.9s-2.7-1.7-3.8-2.8c-1.1-1.1-2-2.5-2.7-4.2c-0.7-1.6-1-3.6-1-6
					c0-2.2,0.4-4.2,1.3-6.2c0.8-2,2.1-3.7,3.8-5.2c1.7-1.5,3.8-2.7,6.3-3.5c2.5-0.9,5.5-1.3,8.9-1.3c1.8,0,3.6,0.2,5.4,0.5
					c1.7,0.3,3.4,0.8,4.9,1.4c1.5,0.6,2.9,1.3,4.2,2.1c1.3,0.8,2.4,1.7,3.3,2.6L351.1,385.6z"/>
				<path class="st2" d="M363.3,425.7v-74h15.3v27.2c1.8-1.6,3.8-2.9,6-3.8c2.2-1,4.7-1.5,7.7-1.5c2.8,0,5.3,0.5,7.4,1.5
					c2.2,1,4,2.3,5.5,4.1c1.5,1.7,2.6,3.8,3.4,6.2c0.8,2.4,1.1,5,1.1,7.8v32.6h-15.3v-32.6c0-2.5-0.6-4.5-1.7-5.9
					c-1.2-1.4-2.9-2.1-5.1-2.1c-1.7,0-3.3,0.4-4.7,1.1c-1.5,0.7-2.9,1.7-4.3,2.9v36.5H363.3z"/>
				<path class="st2" d="M434.2,352.2v73.5H422v-73.5H434.2z"/>
				<path class="st2" d="M468.5,374.8c3,0,5.8,0.5,8.3,1.5c2.5,1,4.7,2.5,6.6,4.4c1.8,1.9,3.3,4.2,4.3,7c1,2.8,1.6,6,1.6,9.5
					c0,1.4-0.1,2.3-0.4,2.8c-0.3,0.5-0.9,0.7-1.7,0.7h-33.3c0.1,3.2,0.5,5.9,1.3,8.3c0.8,2.3,1.9,4.3,3.3,5.9c1.4,1.6,3,2.7,4.9,3.5
					c1.9,0.8,4.1,1.2,6.4,1.2c2.2,0,4.1-0.3,5.7-0.8c1.6-0.5,3-1.1,4.1-1.7c1.2-0.6,2.1-1.1,2.9-1.7c0.8-0.5,1.4-0.8,2-0.8
					c0.7,0,1.3,0.3,1.7,0.8l2.5,3.2c-1.1,1.3-2.4,2.5-3.9,3.4c-1.5,1-3.1,1.8-4.9,2.4c-1.7,0.6-3.5,1.1-5.4,1.4
					c-1.8,0.3-3.7,0.5-5.5,0.5c-3.5,0-6.7-0.6-9.6-1.8s-5.4-2.9-7.6-5.1c-2.1-2.3-3.8-5.1-5-8.4c-1.2-3.3-1.8-7.2-1.8-11.5
					c0-3.5,0.5-6.8,1.6-9.8c1.1-3,2.6-5.7,4.6-7.9c2-2.2,4.5-4,7.4-5.2C461.7,375.4,464.9,374.8,468.5,374.8z M468.7,381.3
					c-4.3,0-7.6,1.2-10,3.7c-2.4,2.5-4,5.9-4.5,10.2h27.3c0-2-0.3-3.9-0.8-5.6c-0.6-1.7-1.4-3.2-2.5-4.4s-2.4-2.2-4-2.9
					C472.5,381.6,470.8,381.3,468.7,381.3z"/>
				<path class="st2" d="M528.4,382.6c-0.2,0.5-0.6,0.7-1.1,0.7c-0.4,0-0.8-0.2-1.4-0.6c-0.6-0.4-1.3-0.9-2.3-1.4
					c-0.9-0.5-2.1-1-3.5-1.4c-1.4-0.4-3-0.6-5-0.6c-1.8,0-3.4,0.3-4.9,0.8c-1.5,0.5-2.7,1.2-3.8,2c-1,0.9-1.8,1.8-2.4,3
					s-0.9,2.3-0.9,3.6c0,1.5,0.4,2.8,1.2,3.8c0.8,1,1.8,1.9,3.1,2.6c1.3,0.7,2.7,1.3,4.4,1.9s3.3,1.1,5,1.6c1.7,0.5,3.4,1.1,5,1.8
					s3.1,1.4,4.4,2.4c1.3,1,2.3,2.1,3.1,3.5c0.8,1.4,1.2,3.1,1.2,5c0,2.1-0.4,4.1-1.2,6c-0.8,1.8-1.9,3.4-3.4,4.8
					c-1.5,1.4-3.3,2.4-5.4,3.2c-2.1,0.8-4.6,1.2-7.3,1.2c-3.5,0-6.4-0.6-9-1.7c-2.5-1.1-4.7-2.5-6.7-4.3l1.1-1.7
					c0.2-0.3,0.3-0.5,0.5-0.6c0.2-0.1,0.5-0.2,0.8-0.2c0.4,0,1,0.3,1.6,0.8s1.4,1.1,2.4,1.7c1,0.6,2.3,1.2,3.8,1.7
					c1.5,0.5,3.4,0.8,5.6,0.8c2.1,0,3.9-0.3,5.5-0.9c1.6-0.6,2.9-1.4,4-2.3c1.1-1,1.9-2.2,2.4-3.5c0.5-1.3,0.8-2.7,0.8-4.2
					c0-1.6-0.4-3-1.2-4.1c-0.8-1.1-1.8-2-3.1-2.8c-1.3-0.8-2.7-1.4-4.4-1.9c-1.6-0.5-3.3-1.1-5-1.6c-1.7-0.5-3.4-1.1-5-1.7
					c-1.6-0.6-3.1-1.4-4.4-2.4c-1.3-1-2.3-2.1-3.1-3.5c-0.8-1.4-1.2-3.1-1.2-5.1c0-1.7,0.4-3.4,1.1-5c0.8-1.6,1.8-3,3.2-4.3
					c1.4-1.2,3.1-2.2,5.1-2.9c2-0.7,4.3-1.1,6.8-1.1c3,0,5.7,0.4,8,1.3c2.3,0.9,4.5,2.2,6.4,4L528.4,382.6z"/>
				<path class="st2" d="M570.3,381.5c-0.1,0.2-0.3,0.3-0.5,0.3c-0.3,0-0.7-0.2-1.2-0.7c-0.5-0.4-1.3-0.9-2.2-1.5s-2.2-1-3.7-1.5
					c-1.5-0.5-3.3-0.7-5.5-0.7c-2,0-3.9,0.3-5.6,0.9c-1.7,0.6-3.2,1.5-4.4,2.5c-1.2,1-2.2,2.2-2.8,3.6c-0.7,1.4-1,2.8-1,4.3
					c0,1.7,0.4,3.2,1.2,4.4c0.8,1.2,1.9,2.2,3.2,3c1.3,0.8,2.9,1.5,4.6,2.1c1.7,0.6,3.5,1.1,5.2,1.7c1.8,0.5,3.5,1.1,5.2,1.7
					c1.7,0.6,3.2,1.4,4.6,2.3c1.3,0.9,2.4,2.1,3.2,3.4c0.8,1.3,1.2,3,1.2,5c0,2-0.4,3.8-1.1,5.6c-0.7,1.7-1.7,3.3-3.1,4.5
					c-1.4,1.3-3,2.3-5,3.1c-2,0.8-4.2,1.1-6.7,1.1c-1.7,0-3.3-0.1-4.7-0.4c-1.4-0.3-2.6-0.7-3.8-1.2c-1.2-0.5-2.3-1.1-3.3-1.8
					c-1-0.7-2-1.5-3-2.4l0.3-0.3c0.1-0.1,0.2-0.2,0.2-0.2c0.1,0,0.2-0.1,0.3-0.1c0.3,0,0.7,0.3,1.3,0.8c0.6,0.6,1.4,1.2,2.5,1.9
					c1.1,0.7,2.4,1.3,4.1,1.9c1.6,0.6,3.6,0.8,6,0.8s4.5-0.3,6.3-1s3.4-1.6,4.6-2.8c1.3-1.2,2.2-2.6,2.8-4.2c0.6-1.6,1-3.3,1-5.2
					c0-1.9-0.4-3.4-1.2-4.7c-0.8-1.2-1.9-2.3-3.2-3.1c-1.3-0.9-2.9-1.6-4.6-2.2c-1.7-0.6-3.5-1.1-5.2-1.7c-1.8-0.5-3.5-1.1-5.2-1.7
					c-1.7-0.6-3.2-1.3-4.6-2.2c-1.3-0.9-2.4-2-3.2-3.2c-0.8-1.3-1.2-2.9-1.2-4.8c0-1.6,0.4-3.2,1.1-4.6c0.7-1.5,1.7-2.8,3.1-3.9
					c1.3-1.1,2.9-2,4.7-2.7c1.8-0.7,3.8-1,6.1-1c2.7,0,5.1,0.4,7.2,1.1s4.1,2,6,3.6L570.3,381.5z"/>
			</g>
			<g>
				<path class="st2" d="M229.5,451.7v1h-8.9v7.1h7.7v1h-7.7v7.7h-1.2v-16.9H229.5z"/>
				<path class="st2" d="M234.4,452.7c0,0.1,0,0.3-0.1,0.4s-0.1,0.2-0.2,0.3c-0.1,0.1-0.2,0.2-0.3,0.2s-0.3,0.1-0.4,0.1
					s-0.3,0-0.4-0.1c-0.1-0.1-0.2-0.1-0.3-0.2c-0.1-0.1-0.2-0.2-0.2-0.3s-0.1-0.3-0.1-0.4c0-0.1,0-0.3,0.1-0.4s0.1-0.2,0.2-0.3
					s0.2-0.2,0.3-0.2c0.1-0.1,0.3-0.1,0.4-0.1s0.3,0,0.4,0.1s0.2,0.1,0.3,0.2s0.2,0.2,0.2,0.3S234.4,452.5,234.4,452.7z
					 M233.9,456.7v11.8h-1.1v-11.8H233.9z"/>
				<path class="st2" d="M238.1,468.6v-11.8h0.6c0.2,0,0.3,0.1,0.4,0.3l0.1,1.8c0.5-0.7,1.2-1.2,1.9-1.6c0.7-0.4,1.5-0.6,2.4-0.6
					c0.7,0,1.2,0.1,1.7,0.3c0.5,0.2,0.9,0.5,1.2,0.9s0.6,0.9,0.7,1.4c0.2,0.5,0.3,1.2,0.3,1.9v7.6h-1.1V461c0-1.1-0.3-2-0.8-2.6
					c-0.5-0.6-1.3-0.9-2.3-0.9c-0.8,0-1.5,0.2-2.2,0.6s-1.3,1-1.8,1.6v8.9H238.1z"/>
				<path class="st2" d="M258.6,468.6c-0.2,0-0.4-0.1-0.4-0.3l-0.2-1.5c-0.3,0.3-0.6,0.6-1,0.9c-0.3,0.3-0.7,0.5-1,0.6
					c-0.3,0.2-0.7,0.3-1.1,0.4c-0.4,0.1-0.8,0.1-1.3,0.1c-0.4,0-0.8-0.1-1.2-0.2c-0.4-0.1-0.7-0.3-1-0.5c-0.3-0.2-0.5-0.6-0.7-0.9
					c-0.2-0.4-0.3-0.8-0.3-1.4c0-0.5,0.1-1,0.4-1.4c0.3-0.4,0.7-0.8,1.3-1.1c0.6-0.3,1.4-0.6,2.3-0.8c1-0.2,2.1-0.3,3.4-0.3v-1.2
					c0-1.1-0.2-1.9-0.7-2.5c-0.5-0.6-1.2-0.9-2.1-0.9c-0.6,0-1.1,0.1-1.5,0.2c-0.4,0.2-0.7,0.3-1,0.5s-0.5,0.4-0.7,0.5
					c-0.2,0.2-0.3,0.2-0.4,0.2c-0.2,0-0.3-0.1-0.4-0.2l-0.2-0.3c0.6-0.6,1.3-1.1,2-1.4c0.7-0.3,1.5-0.5,2.3-0.5
					c0.6,0,1.2,0.1,1.7,0.3s0.9,0.5,1.2,0.9c0.3,0.4,0.5,0.8,0.7,1.4c0.2,0.5,0.2,1.1,0.2,1.8v7.7H258.6z M253.8,468
					c0.5,0,0.9,0,1.3-0.1c0.4-0.1,0.7-0.2,1.1-0.4c0.3-0.2,0.6-0.4,0.9-0.6s0.6-0.5,0.8-0.8v-3.1c-1.1,0-2.1,0.1-2.9,0.3
					c-0.8,0.1-1.5,0.3-2,0.6c-0.5,0.2-0.9,0.5-1.2,0.9c-0.3,0.3-0.4,0.7-0.4,1.1c0,0.4,0.1,0.7,0.2,1c0.1,0.3,0.3,0.5,0.5,0.7
					s0.5,0.3,0.8,0.4C253.2,467.9,253.5,468,253.8,468z"/>
				<path class="st2" d="M262.6,468.6v-11.8h0.6c0.2,0,0.3,0.1,0.4,0.3l0.1,1.8c0.5-0.7,1.2-1.2,1.9-1.6c0.7-0.4,1.5-0.6,2.4-0.6
					c0.7,0,1.2,0.1,1.7,0.3c0.5,0.2,0.9,0.5,1.2,0.9s0.6,0.9,0.7,1.4c0.2,0.5,0.3,1.2,0.3,1.9v7.6h-1.1V461c0-1.1-0.3-2-0.8-2.6
					c-0.5-0.6-1.3-0.9-2.3-0.9c-0.8,0-1.5,0.2-2.2,0.6s-1.3,1-1.8,1.6v8.9H262.6z"/>
				<path class="st2" d="M283.3,458.3c0,0-0.1,0.1-0.1,0.1s-0.1,0-0.1,0c-0.1,0-0.2-0.1-0.3-0.2c-0.1-0.1-0.3-0.2-0.6-0.4
					c-0.2-0.1-0.5-0.2-0.9-0.4c-0.3-0.1-0.8-0.2-1.3-0.2c-0.7,0-1.3,0.1-1.8,0.4c-0.5,0.2-1,0.6-1.3,1c-0.4,0.5-0.6,1-0.8,1.6
					c-0.2,0.6-0.3,1.4-0.3,2.2c0,0.8,0.1,1.6,0.3,2.2c0.2,0.6,0.5,1.2,0.8,1.6c0.4,0.4,0.8,0.8,1.3,1c0.5,0.2,1.1,0.3,1.7,0.3
					c0.6,0,1-0.1,1.4-0.2c0.4-0.1,0.7-0.3,1-0.4s0.4-0.3,0.6-0.4c0.1-0.1,0.3-0.2,0.4-0.2c0.1,0,0.2,0,0.2,0.1l0.3,0.4
					c-0.2,0.2-0.4,0.5-0.7,0.7c-0.3,0.2-0.6,0.4-0.9,0.5c-0.3,0.2-0.7,0.3-1.1,0.4c-0.4,0.1-0.8,0.1-1.3,0.1c-0.8,0-1.4-0.1-2.1-0.4
					c-0.6-0.3-1.2-0.7-1.6-1.2c-0.4-0.5-0.8-1.2-1-1.9c-0.3-0.8-0.4-1.6-0.4-2.6c0-0.9,0.1-1.7,0.4-2.5c0.2-0.7,0.6-1.4,1-1.9
					c0.5-0.5,1-1,1.7-1.3s1.4-0.4,2.3-0.4c0.8,0,1.5,0.1,2.1,0.4c0.6,0.2,1.1,0.6,1.6,1L283.3,458.3z"/>
				<path class="st2" d="M290.8,456.5c0.7,0,1.3,0.1,1.9,0.3c0.6,0.2,1.1,0.6,1.5,1c0.4,0.4,0.7,1,1,1.6c0.2,0.6,0.4,1.4,0.4,2.2
					c0,0.2,0,0.3-0.1,0.4c-0.1,0.1-0.1,0.1-0.2,0.1h-8.6v0.2c0,0.9,0.1,1.7,0.3,2.3c0.2,0.7,0.5,1.2,0.9,1.7c0.4,0.5,0.8,0.8,1.4,1
					c0.5,0.2,1.1,0.3,1.8,0.3c0.6,0,1.1-0.1,1.5-0.2c0.4-0.1,0.8-0.3,1.1-0.4c0.3-0.2,0.5-0.3,0.7-0.4s0.3-0.2,0.4-0.2
					c0.1,0,0.2,0,0.2,0.1l0.3,0.4c-0.2,0.2-0.4,0.5-0.8,0.7c-0.3,0.2-0.7,0.4-1,0.5c-0.4,0.1-0.8,0.3-1.2,0.4
					c-0.4,0.1-0.9,0.1-1.3,0.1c-0.8,0-1.5-0.1-2.2-0.4s-1.2-0.7-1.7-1.2c-0.5-0.5-0.8-1.2-1.1-2s-0.4-1.7-0.4-2.7
					c0-0.8,0.1-1.6,0.4-2.4c0.2-0.7,0.6-1.3,1-1.9c0.5-0.5,1-0.9,1.7-1.2C289.2,456.7,289.9,456.5,290.8,456.5z M290.8,457.4
					c-0.6,0-1.2,0.1-1.6,0.3c-0.5,0.2-0.9,0.5-1.3,0.8c-0.4,0.4-0.6,0.8-0.9,1.3c-0.2,0.5-0.4,1.1-0.4,1.7h7.8
					c0-0.6-0.1-1.2-0.3-1.7c-0.2-0.5-0.4-0.9-0.7-1.3c-0.3-0.3-0.7-0.6-1.1-0.8S291.3,457.4,290.8,457.4z"/>
				<path class="st2" d="M305,458.2c-0.1,0.1-0.1,0.2-0.3,0.2c-0.1,0-0.2,0-0.3-0.1c-0.1-0.1-0.3-0.2-0.5-0.3
					c-0.2-0.1-0.5-0.2-0.8-0.3s-0.7-0.1-1.2-0.1c-0.4,0-0.8,0.1-1.2,0.2c-0.4,0.1-0.7,0.3-0.9,0.5c-0.3,0.2-0.4,0.4-0.6,0.7
					c-0.1,0.3-0.2,0.6-0.2,0.9c0,0.4,0.1,0.7,0.3,0.9c0.2,0.2,0.4,0.5,0.8,0.6c0.3,0.2,0.7,0.3,1.1,0.5c0.4,0.1,0.8,0.3,1.2,0.4
					c0.4,0.1,0.8,0.3,1.2,0.4s0.7,0.3,1.1,0.6s0.6,0.5,0.8,0.8c0.2,0.3,0.3,0.7,0.3,1.2c0,0.5-0.1,1-0.3,1.4
					c-0.2,0.4-0.5,0.8-0.8,1.2c-0.4,0.3-0.8,0.6-1.3,0.8s-1.1,0.3-1.8,0.3c-0.8,0-1.6-0.1-2.2-0.4c-0.6-0.3-1.1-0.6-1.6-1l0.3-0.4
					c0-0.1,0.1-0.1,0.1-0.1s0.1,0,0.2,0c0.1,0,0.2,0.1,0.4,0.2s0.3,0.3,0.6,0.4c0.2,0.1,0.5,0.3,0.9,0.4s0.8,0.2,1.3,0.2
					c0.5,0,0.9-0.1,1.3-0.2c0.4-0.1,0.7-0.3,1-0.6c0.3-0.2,0.4-0.5,0.6-0.8c0.1-0.3,0.2-0.7,0.2-1c0-0.4-0.1-0.7-0.3-1
					c-0.2-0.3-0.4-0.5-0.8-0.7c-0.3-0.2-0.7-0.3-1.1-0.5c-0.4-0.1-0.8-0.3-1.2-0.4c-0.4-0.1-0.8-0.3-1.2-0.4s-0.7-0.3-1.1-0.6
					c-0.3-0.2-0.6-0.5-0.8-0.8c-0.2-0.3-0.3-0.7-0.3-1.2c0-0.4,0.1-0.8,0.3-1.2c0.2-0.4,0.4-0.7,0.8-1c0.3-0.3,0.7-0.5,1.2-0.7
					s1-0.3,1.6-0.3c0.7,0,1.4,0.1,1.9,0.3c0.6,0.2,1.1,0.5,1.5,1L305,458.2z"/>
				<path class="st2" d="M313.8,468.6V458l-1.7-0.1c-0.2,0-0.3-0.1-0.3-0.3v-0.5h2v-1.5c0-0.7,0.1-1.3,0.3-1.8s0.4-0.9,0.7-1.3
					c0.3-0.3,0.7-0.6,1.1-0.8s0.9-0.3,1.5-0.3c0.2,0,0.5,0,0.7,0.1s0.5,0.1,0.7,0.2l0,0.5c0,0.1-0.1,0.2-0.2,0.2c-0.1,0-0.2,0-0.4,0
					c-0.2,0-0.4,0-0.6,0c-0.4,0-0.7,0.1-1.1,0.2c-0.3,0.1-0.6,0.3-0.9,0.6c-0.2,0.3-0.4,0.6-0.6,1c-0.1,0.4-0.2,0.9-0.2,1.5v1.5h3.8
					v0.8h-3.8v10.6H313.8z"/>
				<path class="st2" d="M325.5,456.5c0.8,0,1.6,0.1,2.3,0.4c0.7,0.3,1.2,0.7,1.7,1.2c0.5,0.5,0.8,1.2,1.1,1.9s0.4,1.6,0.4,2.5
					c0,0.9-0.1,1.8-0.4,2.5c-0.2,0.7-0.6,1.4-1.1,1.9c-0.5,0.5-1,0.9-1.7,1.2s-1.4,0.4-2.3,0.4s-1.6-0.1-2.3-0.4s-1.2-0.7-1.7-1.2
					c-0.5-0.5-0.8-1.2-1.1-1.9c-0.2-0.7-0.4-1.6-0.4-2.5c0-0.9,0.1-1.8,0.4-2.5s0.6-1.4,1.1-1.9c0.5-0.5,1-0.9,1.7-1.2
					C323.9,456.7,324.7,456.5,325.5,456.5z M325.5,467.9c0.7,0,1.3-0.1,1.9-0.4c0.5-0.2,1-0.6,1.3-1c0.4-0.5,0.6-1,0.8-1.6
					s0.3-1.4,0.3-2.1c0-0.8-0.1-1.5-0.3-2.1s-0.4-1.2-0.8-1.6c-0.4-0.5-0.8-0.8-1.3-1.1c-0.5-0.2-1.1-0.4-1.9-0.4s-1.3,0.1-1.9,0.4
					c-0.5,0.2-1,0.6-1.3,1.1c-0.4,0.5-0.6,1-0.8,1.6s-0.3,1.4-0.3,2.1c0,0.8,0.1,1.5,0.3,2.1s0.4,1.2,0.8,1.6c0.4,0.5,0.8,0.8,1.3,1
					C324.2,467.7,324.8,467.9,325.5,467.9z"/>
				<path class="st2" d="M333.9,468.6v-11.8h0.6c0.1,0,0.2,0,0.3,0.1c0.1,0.1,0.1,0.2,0.1,0.3l0.1,2.5c0.4-1,0.9-1.7,1.5-2.3
					c0.6-0.5,1.4-0.8,2.3-0.8c0.4,0,0.7,0,1,0.1c0.3,0.1,0.6,0.2,0.9,0.3l-0.2,0.8c0,0.1-0.1,0.2-0.2,0.2c0,0-0.1,0-0.2,0
					c-0.1,0-0.2-0.1-0.3-0.1c-0.1,0-0.3-0.1-0.5-0.1s-0.4,0-0.7,0c-0.9,0-1.6,0.3-2.2,0.8s-1,1.4-1.4,2.4v7.7H333.9z"/>
				<path class="st2" d="M351.2,468.8c-0.8,0-1.4-0.2-1.9-0.7c-0.4-0.4-0.7-1.1-0.7-2.1V458h-1.7c-0.1,0-0.2,0-0.2-0.1
					s-0.1-0.1-0.1-0.2v-0.4l2-0.1l0.3-4.2c0-0.1,0-0.1,0.1-0.2c0.1-0.1,0.1-0.1,0.2-0.1h0.5v4.5h3.7v0.8h-3.7v8c0,0.3,0,0.6,0.1,0.8
					c0.1,0.2,0.2,0.4,0.3,0.6c0.1,0.2,0.3,0.3,0.5,0.3c0.2,0.1,0.4,0.1,0.6,0.1c0.3,0,0.5,0,0.7-0.1c0.2-0.1,0.4-0.2,0.5-0.3
					s0.3-0.2,0.4-0.3c0.1-0.1,0.2-0.1,0.2-0.1c0.1,0,0.1,0,0.2,0.1l0.3,0.5c-0.3,0.3-0.7,0.6-1.1,0.8
					C352.1,468.7,351.7,468.8,351.2,468.8z"/>
				<path class="st2" d="M356.4,468.6v-17.3h1.1v7.5c0.5-0.7,1.2-1.2,1.9-1.6s1.5-0.6,2.4-0.6c0.7,0,1.2,0.1,1.7,0.3
					c0.5,0.2,0.9,0.5,1.2,0.9s0.6,0.9,0.7,1.4c0.2,0.5,0.3,1.2,0.3,1.9v7.6h-1.1V461c0-1.1-0.3-2-0.8-2.6c-0.5-0.6-1.3-0.9-2.3-0.9
					c-0.8,0-1.5,0.2-2.2,0.6s-1.3,1-1.8,1.6v8.9H356.4z"/>
				<path class="st2" d="M373.8,456.5c0.8,0,1.6,0.1,2.3,0.4c0.7,0.3,1.2,0.7,1.7,1.2c0.5,0.5,0.8,1.2,1.1,1.9s0.4,1.6,0.4,2.5
					c0,0.9-0.1,1.8-0.4,2.5c-0.2,0.7-0.6,1.4-1.1,1.9c-0.5,0.5-1,0.9-1.7,1.2c-0.7,0.3-1.4,0.4-2.3,0.4s-1.6-0.1-2.3-0.4
					s-1.2-0.7-1.7-1.2c-0.5-0.5-0.8-1.2-1.1-1.9c-0.2-0.7-0.4-1.6-0.4-2.5c0-0.9,0.1-1.8,0.4-2.5s0.6-1.4,1.1-1.9
					c0.5-0.5,1-0.9,1.7-1.2C372.2,456.7,373,456.5,373.8,456.5z M373.8,467.9c0.7,0,1.3-0.1,1.9-0.4c0.5-0.2,1-0.6,1.3-1
					s0.6-1,0.8-1.6s0.3-1.4,0.3-2.1c0-0.8-0.1-1.5-0.3-2.1s-0.4-1.2-0.8-1.6s-0.8-0.8-1.3-1.1c-0.5-0.2-1.1-0.4-1.9-0.4
					s-1.3,0.1-1.9,0.4c-0.5,0.2-1,0.6-1.3,1.1c-0.4,0.5-0.6,1-0.8,1.6s-0.3,1.4-0.3,2.1c0,0.8,0.1,1.5,0.3,2.1s0.4,1.2,0.8,1.6
					c0.4,0.5,0.8,0.8,1.3,1C372.5,467.7,373.1,467.9,373.8,467.9z"/>
				<path class="st2" d="M388.7,458.2c-0.1,0.1-0.1,0.2-0.3,0.2c-0.1,0-0.2,0-0.3-0.1c-0.1-0.1-0.3-0.2-0.5-0.3
					c-0.2-0.1-0.5-0.2-0.8-0.3c-0.3-0.1-0.7-0.1-1.2-0.1c-0.4,0-0.8,0.1-1.2,0.2c-0.4,0.1-0.7,0.3-0.9,0.5c-0.3,0.2-0.4,0.4-0.6,0.7
					c-0.1,0.3-0.2,0.6-0.2,0.9c0,0.4,0.1,0.7,0.3,0.9c0.2,0.2,0.4,0.5,0.8,0.6s0.7,0.3,1.1,0.5c0.4,0.1,0.8,0.3,1.2,0.4
					s0.8,0.3,1.2,0.4c0.4,0.2,0.7,0.3,1.1,0.6s0.6,0.5,0.8,0.8c0.2,0.3,0.3,0.7,0.3,1.2c0,0.5-0.1,1-0.3,1.4
					c-0.2,0.4-0.5,0.8-0.8,1.2c-0.4,0.3-0.8,0.6-1.3,0.8c-0.5,0.2-1.1,0.3-1.8,0.3c-0.8,0-1.6-0.1-2.2-0.4c-0.6-0.3-1.1-0.6-1.6-1
					l0.3-0.4c0-0.1,0.1-0.1,0.1-0.1s0.1,0,0.2,0c0.1,0,0.2,0.1,0.4,0.2c0.2,0.1,0.3,0.3,0.6,0.4c0.2,0.1,0.5,0.3,0.9,0.4
					s0.8,0.2,1.3,0.2c0.5,0,0.9-0.1,1.3-0.2c0.4-0.1,0.7-0.3,1-0.6c0.3-0.2,0.4-0.5,0.6-0.8c0.1-0.3,0.2-0.7,0.2-1
					c0-0.4-0.1-0.7-0.3-1c-0.2-0.3-0.4-0.5-0.8-0.7c-0.3-0.2-0.7-0.3-1.1-0.5c-0.4-0.1-0.8-0.3-1.2-0.4c-0.4-0.1-0.8-0.3-1.2-0.4
					c-0.4-0.2-0.7-0.3-1.1-0.6c-0.3-0.2-0.6-0.5-0.8-0.8s-0.3-0.7-0.3-1.2c0-0.4,0.1-0.8,0.3-1.2c0.2-0.4,0.4-0.7,0.8-1
					c0.3-0.3,0.7-0.5,1.2-0.7s1-0.3,1.6-0.3c0.7,0,1.4,0.1,1.9,0.3c0.6,0.2,1.1,0.5,1.5,1L388.7,458.2z"/>
				<path class="st2" d="M396.9,456.5c0.7,0,1.3,0.1,1.9,0.3c0.6,0.2,1.1,0.6,1.5,1c0.4,0.4,0.7,1,1,1.6s0.4,1.4,0.4,2.2
					c0,0.2,0,0.3-0.1,0.4c-0.1,0.1-0.1,0.1-0.2,0.1h-8.6v0.2c0,0.9,0.1,1.7,0.3,2.3c0.2,0.7,0.5,1.2,0.9,1.7c0.4,0.5,0.8,0.8,1.4,1
					c0.5,0.2,1.1,0.3,1.8,0.3c0.6,0,1.1-0.1,1.5-0.2c0.4-0.1,0.8-0.3,1.1-0.4c0.3-0.2,0.5-0.3,0.7-0.4c0.2-0.1,0.3-0.2,0.4-0.2
					c0.1,0,0.2,0,0.2,0.1l0.3,0.4c-0.2,0.2-0.4,0.5-0.8,0.7s-0.7,0.4-1,0.5c-0.4,0.1-0.8,0.3-1.2,0.4c-0.4,0.1-0.9,0.1-1.3,0.1
					c-0.8,0-1.5-0.1-2.2-0.4c-0.7-0.3-1.2-0.7-1.7-1.2c-0.5-0.5-0.8-1.2-1.1-2s-0.4-1.7-0.4-2.7c0-0.8,0.1-1.6,0.4-2.4
					c0.2-0.7,0.6-1.3,1-1.9c0.5-0.5,1-0.9,1.7-1.2C395.3,456.7,396.1,456.5,396.9,456.5z M396.9,457.4c-0.6,0-1.2,0.1-1.6,0.3
					c-0.5,0.2-0.9,0.5-1.3,0.8c-0.4,0.4-0.6,0.8-0.9,1.3c-0.2,0.5-0.4,1.1-0.4,1.7h7.8c0-0.6-0.1-1.2-0.3-1.7
					c-0.2-0.5-0.4-0.9-0.7-1.3c-0.3-0.3-0.7-0.6-1.1-0.8C397.9,457.5,397.5,457.4,396.9,457.4z"/>
				<path class="st2" d="M407.5,456.7h0.9c0.1,0,0.2,0,0.3,0.1c0.1,0.1,0.1,0.1,0.1,0.2l3,9.3c0.1,0.2,0.1,0.4,0.1,0.5
					c0,0.2,0.1,0.3,0.1,0.5c0-0.2,0.1-0.3,0.1-0.5c0-0.2,0.1-0.3,0.2-0.5l3.2-9.4c0.1-0.2,0.2-0.3,0.3-0.3h0.5
					c0.2,0,0.3,0.1,0.3,0.3l3.1,9.4c0.1,0.4,0.2,0.7,0.3,1c0-0.2,0.1-0.3,0.1-0.5c0-0.2,0.1-0.3,0.1-0.5l3-9.3
					c0.1-0.2,0.2-0.3,0.4-0.3h0.8l-4,11.8h-0.8c-0.1,0-0.2-0.1-0.3-0.3l-3.3-9.6c0-0.1-0.1-0.2-0.1-0.4c0-0.1-0.1-0.2-0.1-0.4
					c0,0.1,0,0.2-0.1,0.4c0,0.1-0.1,0.2-0.1,0.4l-3.3,9.6c0,0.2-0.1,0.3-0.3,0.3h-0.8L407.5,456.7z"/>
				<path class="st2" d="M428.7,452.7c0,0.1,0,0.3-0.1,0.4s-0.1,0.2-0.2,0.3c-0.1,0.1-0.2,0.2-0.3,0.2s-0.3,0.1-0.4,0.1
					c-0.1,0-0.3,0-0.4-0.1s-0.2-0.1-0.3-0.2c-0.1-0.1-0.2-0.2-0.2-0.3c-0.1-0.1-0.1-0.3-0.1-0.4c0-0.1,0-0.3,0.1-0.4
					c0.1-0.1,0.1-0.2,0.2-0.3c0.1-0.1,0.2-0.2,0.3-0.2s0.3-0.1,0.4-0.1c0.1,0,0.3,0,0.4,0.1s0.2,0.1,0.3,0.2
					c0.1,0.1,0.2,0.2,0.2,0.3S428.7,452.5,428.7,452.7z M428.2,456.7v11.8h-1.1v-11.8H428.2z"/>
				<path class="st2" d="M435.6,468.8c-0.8,0-1.4-0.2-1.9-0.7c-0.4-0.4-0.7-1.1-0.7-2.1V458h-1.7c-0.1,0-0.2,0-0.2-0.1
					c-0.1,0-0.1-0.1-0.1-0.2v-0.4l2-0.1l0.3-4.2c0-0.1,0-0.1,0.1-0.2c0.1-0.1,0.1-0.1,0.2-0.1h0.5v4.5h3.7v0.8h-3.7v8
					c0,0.3,0,0.6,0.1,0.8c0.1,0.2,0.2,0.4,0.3,0.6c0.1,0.2,0.3,0.3,0.5,0.3c0.2,0.1,0.4,0.1,0.6,0.1c0.3,0,0.5,0,0.7-0.1
					c0.2-0.1,0.4-0.2,0.5-0.3s0.3-0.2,0.4-0.3c0.1-0.1,0.2-0.1,0.2-0.1c0.1,0,0.1,0,0.2,0.1l0.3,0.5c-0.3,0.3-0.7,0.6-1.1,0.8
					C436.6,468.7,436.1,468.8,435.6,468.8z"/>
				<path class="st2" d="M440.9,468.6v-17.3h1.1v7.5c0.5-0.7,1.2-1.2,1.9-1.6c0.7-0.4,1.5-0.6,2.4-0.6c0.7,0,1.2,0.1,1.7,0.3
					c0.5,0.2,0.9,0.5,1.2,0.9s0.6,0.9,0.7,1.4s0.3,1.2,0.3,1.9v7.6h-1.1V461c0-1.1-0.3-2-0.8-2.6s-1.3-0.9-2.3-0.9
					c-0.8,0-1.5,0.2-2.2,0.6c-0.7,0.4-1.3,1-1.8,1.6v8.9H440.9z"/>
				<path class="st2" d="M458.8,468.6V458l-1.7-0.1c-0.2,0-0.3-0.1-0.3-0.3v-0.5h2v-1.5c0-0.7,0.1-1.3,0.3-1.8s0.4-0.9,0.7-1.3
					s0.7-0.6,1.1-0.8s0.9-0.3,1.5-0.3c0.2,0,0.5,0,0.7,0.1c0.3,0,0.5,0.1,0.7,0.2l0,0.5c0,0.1-0.1,0.2-0.2,0.2c-0.1,0-0.2,0-0.4,0
					c-0.2,0-0.4,0-0.6,0c-0.4,0-0.7,0.1-1.1,0.2c-0.3,0.1-0.6,0.3-0.9,0.6c-0.2,0.3-0.4,0.6-0.6,1c-0.1,0.4-0.2,0.9-0.2,1.5v1.5h3.8
					v0.8H460v10.6H458.8z"/>
				<path class="st2" d="M470.5,456.5c0.7,0,1.3,0.1,1.9,0.3c0.6,0.2,1.1,0.6,1.5,1c0.4,0.4,0.7,1,1,1.6s0.4,1.4,0.4,2.2
					c0,0.2,0,0.3-0.1,0.4c-0.1,0.1-0.1,0.1-0.2,0.1h-8.6v0.2c0,0.9,0.1,1.7,0.3,2.3c0.2,0.7,0.5,1.2,0.9,1.7c0.4,0.5,0.8,0.8,1.4,1
					c0.5,0.2,1.1,0.3,1.8,0.3c0.6,0,1.1-0.1,1.5-0.2s0.8-0.3,1.1-0.4c0.3-0.2,0.5-0.3,0.7-0.4c0.2-0.1,0.3-0.2,0.4-0.2
					c0.1,0,0.2,0,0.2,0.1l0.3,0.4c-0.2,0.2-0.4,0.5-0.8,0.7c-0.3,0.2-0.7,0.4-1,0.5c-0.4,0.1-0.8,0.3-1.2,0.4s-0.9,0.1-1.3,0.1
					c-0.8,0-1.5-0.1-2.2-0.4s-1.2-0.7-1.7-1.2s-0.8-1.2-1.1-2s-0.4-1.7-0.4-2.7c0-0.8,0.1-1.6,0.4-2.4c0.2-0.7,0.6-1.3,1-1.9
					c0.5-0.5,1-0.9,1.7-1.2S469.7,456.5,470.5,456.5z M470.5,457.4c-0.6,0-1.2,0.1-1.6,0.3c-0.5,0.2-0.9,0.5-1.3,0.8
					c-0.4,0.4-0.6,0.8-0.9,1.3c-0.2,0.5-0.4,1.1-0.4,1.7h7.8c0-0.6-0.1-1.2-0.3-1.7c-0.2-0.5-0.4-0.9-0.7-1.3
					c-0.3-0.3-0.7-0.6-1.1-0.8C471.6,457.5,471.1,457.4,470.5,457.4z"/>
				<path class="st2" d="M476.6,456.7h0.9c0.1,0,0.2,0,0.3,0.1c0.1,0.1,0.1,0.1,0.1,0.2l3,9.3c0.1,0.2,0.1,0.4,0.1,0.5
					c0,0.2,0.1,0.3,0.1,0.5c0-0.2,0.1-0.3,0.1-0.5c0-0.2,0.1-0.3,0.2-0.5l3.2-9.4c0.1-0.2,0.2-0.3,0.3-0.3h0.5
					c0.2,0,0.3,0.1,0.3,0.3l3.1,9.4c0.1,0.4,0.2,0.7,0.3,1c0-0.2,0.1-0.3,0.1-0.5c0-0.2,0.1-0.3,0.1-0.5l3-9.3
					c0.1-0.2,0.2-0.3,0.4-0.3h0.8l-4,11.8h-0.8c-0.1,0-0.2-0.1-0.3-0.3l-3.3-9.6c0-0.1-0.1-0.2-0.1-0.4c0-0.1-0.1-0.2-0.1-0.4
					c0,0.1,0,0.2-0.1,0.4c0,0.1-0.1,0.2-0.1,0.4l-3.3,9.6c0,0.2-0.1,0.3-0.3,0.3h-0.8L476.6,456.7z"/>
				<path class="st2" d="M500.4,468.6v-11.8h0.6c0.2,0,0.3,0.1,0.4,0.3l0.1,1.7c0.2-0.3,0.5-0.6,0.7-0.9c0.3-0.3,0.5-0.5,0.8-0.7
					c0.3-0.2,0.6-0.3,1-0.5c0.3-0.1,0.7-0.2,1.1-0.2c0.9,0,1.6,0.3,2.1,0.8c0.5,0.5,0.9,1.2,1,2.1c0.1-0.5,0.3-0.9,0.6-1.3
					c0.3-0.4,0.6-0.7,0.9-0.9c0.3-0.2,0.7-0.4,1.1-0.5c0.4-0.1,0.8-0.2,1.2-0.2c0.6,0,1.1,0.1,1.6,0.3c0.5,0.2,0.9,0.5,1.2,0.9
					c0.3,0.4,0.6,0.8,0.8,1.4c0.2,0.6,0.3,1.2,0.3,1.9v7.6h-1.1V461c0-1.2-0.3-2-0.8-2.6s-1.2-0.9-2.1-0.9c-0.4,0-0.8,0.1-1.2,0.2
					c-0.4,0.2-0.7,0.4-1,0.7c-0.3,0.3-0.5,0.7-0.7,1.1c-0.2,0.4-0.3,1-0.3,1.5v7.6h-1.1V461c0-1.2-0.2-2-0.7-2.6
					c-0.5-0.6-1.1-0.9-2-0.9c-0.6,0-1.2,0.2-1.8,0.6s-1,0.9-1.5,1.6v9H500.4z"/>
				<path class="st2" d="M523.8,456.5c0.8,0,1.6,0.1,2.3,0.4c0.7,0.3,1.2,0.7,1.7,1.2c0.5,0.5,0.8,1.2,1.1,1.9s0.4,1.6,0.4,2.5
					c0,0.9-0.1,1.8-0.4,2.5c-0.2,0.7-0.6,1.4-1.1,1.9c-0.5,0.5-1,0.9-1.7,1.2s-1.4,0.4-2.3,0.4c-0.8,0-1.6-0.1-2.3-0.4
					s-1.2-0.7-1.7-1.2c-0.5-0.5-0.8-1.2-1.1-1.9c-0.2-0.7-0.4-1.6-0.4-2.5c0-0.9,0.1-1.8,0.4-2.5s0.6-1.4,1.1-1.9
					c0.5-0.5,1-0.9,1.7-1.2C522.2,456.7,523,456.5,523.8,456.5z M523.8,467.9c0.7,0,1.3-0.1,1.9-0.4s1-0.6,1.3-1
					c0.4-0.5,0.6-1,0.8-1.6c0.2-0.6,0.3-1.4,0.3-2.1c0-0.8-0.1-1.5-0.3-2.1c-0.2-0.6-0.4-1.2-0.8-1.6c-0.4-0.5-0.8-0.8-1.3-1.1
					s-1.1-0.4-1.9-0.4c-0.7,0-1.3,0.1-1.9,0.4s-1,0.6-1.3,1.1c-0.4,0.5-0.6,1-0.8,1.6c-0.2,0.6-0.3,1.4-0.3,2.1
					c0,0.8,0.1,1.5,0.3,2.1c0.2,0.6,0.4,1.2,0.8,1.6c0.4,0.5,0.8,0.8,1.3,1S523.1,467.9,523.8,467.9z"/>
				<path class="st2" d="M532.2,468.6v-11.8h0.6c0.2,0,0.3,0.1,0.4,0.3l0.1,1.8c0.5-0.7,1.2-1.2,1.9-1.6c0.7-0.4,1.5-0.6,2.4-0.6
					c0.7,0,1.2,0.1,1.7,0.3c0.5,0.2,0.9,0.5,1.2,0.9s0.6,0.9,0.7,1.4s0.3,1.2,0.3,1.9v7.6h-1.1V461c0-1.1-0.3-2-0.8-2.6
					s-1.3-0.9-2.3-0.9c-0.8,0-1.5,0.2-2.2,0.6c-0.7,0.4-1.3,1-1.8,1.6v8.9H532.2z"/>
				<path class="st2" d="M549.6,456.5c0.7,0,1.3,0.1,1.9,0.3c0.6,0.2,1.1,0.6,1.5,1c0.4,0.4,0.7,1,1,1.6s0.4,1.4,0.4,2.2
					c0,0.2,0,0.3-0.1,0.4c-0.1,0.1-0.1,0.1-0.2,0.1h-8.6v0.2c0,0.9,0.1,1.7,0.3,2.3c0.2,0.7,0.5,1.2,0.9,1.7c0.4,0.5,0.8,0.8,1.4,1
					c0.5,0.2,1.1,0.3,1.8,0.3c0.6,0,1.1-0.1,1.5-0.2s0.8-0.3,1.1-0.4c0.3-0.2,0.5-0.3,0.7-0.4c0.2-0.1,0.3-0.2,0.4-0.2
					c0.1,0,0.2,0,0.2,0.1l0.3,0.4c-0.2,0.2-0.4,0.5-0.8,0.7c-0.3,0.2-0.7,0.4-1,0.5c-0.4,0.1-0.8,0.3-1.2,0.4s-0.9,0.1-1.3,0.1
					c-0.8,0-1.5-0.1-2.2-0.4s-1.2-0.7-1.7-1.2s-0.8-1.2-1.1-2s-0.4-1.7-0.4-2.7c0-0.8,0.1-1.6,0.4-2.4c0.2-0.7,0.6-1.3,1-1.9
					c0.5-0.5,1-0.9,1.7-1.2S548.7,456.5,549.6,456.5z M549.6,457.4c-0.6,0-1.2,0.1-1.6,0.3c-0.5,0.2-0.9,0.5-1.3,0.8
					c-0.4,0.4-0.6,0.8-0.9,1.3c-0.2,0.5-0.4,1.1-0.4,1.7h7.8c0-0.6-0.1-1.2-0.3-1.7c-0.2-0.5-0.4-0.9-0.7-1.3
					c-0.3-0.3-0.7-0.6-1.1-0.8C550.6,457.5,550.1,457.4,549.6,457.4z"/>
				<path class="st2" d="M559.6,472.4c0,0.1-0.1,0.2-0.2,0.3s-0.2,0.1-0.3,0.1h-0.8l2.1-4.6l-5-11.4h0.9c0.1,0,0.2,0,0.3,0.1
					c0.1,0.1,0.1,0.1,0.1,0.2l4,9.2c0,0.1,0.1,0.2,0.1,0.4c0,0.1,0.1,0.2,0.1,0.4c0-0.1,0.1-0.3,0.1-0.4c0-0.1,0.1-0.2,0.1-0.4
					l3.9-9.2c0-0.1,0.1-0.2,0.2-0.2c0.1-0.1,0.2-0.1,0.2-0.1h0.9L559.6,472.4z"/>
				<path class="st2" d="M566.5,467.7c0-0.2,0-0.3,0.1-0.4c0.1-0.1,0.1-0.3,0.2-0.4c0.1-0.1,0.2-0.2,0.3-0.2s0.3-0.1,0.4-0.1
					c0.2,0,0.3,0,0.4,0.1c0.1,0.1,0.3,0.1,0.4,0.2c0.1,0.1,0.2,0.2,0.2,0.4c0.1,0.1,0.1,0.3,0.1,0.4c0,0.2,0,0.3-0.1,0.4
					s-0.1,0.2-0.2,0.3c-0.1,0.1-0.2,0.2-0.4,0.2c-0.1,0.1-0.3,0.1-0.4,0.1c-0.3,0-0.6-0.1-0.8-0.3
					C566.6,468.2,566.5,468,566.5,467.7z"/>
			</g>
		</g>
	</g>
	<ellipse class="st0" cx="179.3" cy="108.8" rx="19.3" ry="18.6"/>
	<ellipse class="st0" cx="212.5" cy="50.1" rx="6.2" ry="7.7"/>
	<ellipse class="st0" cx="653.4" cy="610.9" rx="18.6" ry="16.2"/>
	<ellipse class="st0" cx="410.5" cy="728.4" rx="26.3" ry="22.4"/>
	<ellipse class="st0" cx="342.5" cy="707.5" rx="15.5" ry="13.9"/>
</g>
</svg>
